<?xml version="1.0" encoding="UTF-8"?>
<svg version="1.1" xmlns="http://www.w3.org/2000/svg" width="16" height="16">
<path d="M0 0 C5.28 0 10.56 0 16 0 C16 5.28 16 10.56 16 16 C10.72 16 5.44 16 0 16 C0 10.72 0 5.44 0 0 Z " fill="#43383A" transform="translate(0,0)"/>
<path d="M0 0 C0.66 0 1.32 0 2 0 C2 1.32 2 2.64 2 4 C2.33 3.67 2.66 3.34 3 3 C3 2.34 3 1.68 3 1 C5.375 0.375 5.375 0.375 8 0 C10 2 10 2 10 6 C9.34 6 8.68 6 8 6 C7.67 6.99 7.34 7.98 7 9 C5.35 9 3.7 9 2 9 C1.67 7.68 1.34 6.36 1 5 C0.34 5 -0.32 5 -1 5 C-0.67 3.35 -0.34 1.7 0 0 Z " fill="#825929" transform="translate(4,1)"/>
<path d="M0 0 C4.01574802 0 7.38631295 0.19315648 11 2 C11.33 1.34 11.66 0.68 12 0 C12.66 0 13.32 0 14 0 C14 0.99 14 1.98 14 3 C11.1235123 5.36887222 9.62629008 6.03757741 5.875 5.8125 C3 5 3 5 0 3 C0 2.01 0 1.02 0 0 Z " fill="#5D3A2A" transform="translate(1,9)"/>
<path d="M0 0 C0.33 0.66 0.66 1.32 1 2 C5.00796743 4.17575375 7.62183487 4.04695253 12 3 C12.99 2.67 13.98 2.34 15 2 C15.33 1.34 15.66 0.68 16 0 C16 1.98 16 3.96 16 6 C10.72 6 5.44 6 0 6 C0 4.02 0 2.04 0 0 Z " fill="#3F3E46" transform="translate(0,10)"/>
<path d="M0 0 C0 0.99 0 1.98 0 3 C-3.33303391 5.49977543 -4.73303602 6 -9 6 C-8.67 4.68 -8.34 3.36 -8 2 C-7.34 2 -6.68 2 -6 2 C-6 2.66 -6 3.32 -6 4 C-5.38125 3.34 -4.7625 2.68 -4.125 2 C-2 0 -2 0 0 0 Z " fill="#58312D" transform="translate(15,9)"/>
<path d="M0 0 C0.33 1.32 0.66 2.64 1 4 C0.34 4 -0.32 4 -1 4 C-1.33 4.99 -1.66 5.98 -2 7 C-2.66 6.34 -3.32 5.68 -4 5 C-3.34 3.68 -2.68 2.36 -2 1 C-1.34 1.33 -0.68 1.66 0 2 C0 1.34 0 0.68 0 0 Z " fill="#36252C" transform="translate(14,5)"/>
</svg>
